<?xml version="1.0" encoding="UTF-8" standalone="no"?>
<!-- Created with Inkscape (http://www.inkscape.org/) -->

<svg
   xmlns:dc="http://purl.org/dc/elements/1.1/"
   xmlns:cc="http://creativecommons.org/ns#"
   xmlns:rdf="http://www.w3.org/1999/02/22-rdf-syntax-ns#"
   xmlns:svg="http://www.w3.org/2000/svg"
   xmlns="http://www.w3.org/2000/svg"
   xmlns:sodipodi="http://sodipodi.sourceforge.net/DTD/sodipodi-0.dtd"
   xmlns:inkscape="http://www.inkscape.org/namespaces/inkscape"
   width="1400"
   height="900"
   viewBox="0 0 1400 900.00001"
   id="svg3346"
   version="1.1"
   inkscape:version="0.91 r13725"
   sodipodi:docname="Page1mockup-1.svg">
  <defs
     id="defs3348" />
  <sodipodi:namedview
     id="base"
     pagecolor="#ffffff"
     bordercolor="#666666"
     borderopacity="1.0"
     inkscape:pageopacity="0.0"
     inkscape:pageshadow="2"
     inkscape:zoom="0.49497475"
     inkscape:cx="837.39274"
     inkscape:cy="453.13787"
     inkscape:document-units="px"
     inkscape:current-layer="layer1"
     showgrid="true"
     units="px"
     showguides="false"
     inkscape:window-width="1366"
     inkscape:window-height="693"
     inkscape:window-x="-9"
     inkscape:window-y="-9"
     inkscape:window-maximized="1">
    <inkscape:grid
       type="xygrid"
       id="grid3354" />
  </sodipodi:namedview>
  <metadata
     id="metadata3351">
    <rdf:RDF>
      <cc:Work
         rdf:about="">
        <dc:format>image/svg+xml</dc:format>
        <dc:type
           rdf:resource="http://purl.org/dc/dcmitype/StillImage" />
        <dc:title></dc:title>
      </cc:Work>
    </rdf:RDF>
  </metadata>
  <g
     inkscape:label="Layer 1"
     inkscape:groupmode="layer"
     id="layer1"
     transform="translate(0,-152.36216)">
    <rect
       style="fill:#0000ff;fill-rule:evenodd;stroke:#000000;stroke-width:1px;stroke-linecap:butt;stroke-linejoin:miter;stroke-opacity:1"
       id="rect3356"
       width="1320"
       height="100"
       x="40"
       y="192.36217" />
    <rect
       style="fill:#0000ff;fill-rule:evenodd;stroke:#000000;stroke-width:1px;stroke-linecap:butt;stroke-linejoin:miter;stroke-opacity:1"
       id="rect3358"
       width="1320"
       height="60"
       x="40"
       y="312.36215" />
    <rect
       style="fill:#0000ff;fill-rule:evenodd;stroke:#000000;stroke-width:1px;stroke-linecap:butt;stroke-linejoin:miter;stroke-opacity:1"
       id="rect3360"
       width="1320"
       height="520"
       x="40"
       y="392.36215" />
    <rect
       style="fill:#4d4d4d;fill-rule:evenodd;stroke:#000000;stroke-width:1px;stroke-linecap:butt;stroke-linejoin:miter;stroke-opacity:1"
       id="rect3362"
       width="1320"
       height="60"
       x="40"
       y="932.36218" />
    <text
       xml:space="preserve"
       style="font-style:normal;font-weight:normal;font-size:40px;line-height:125%;font-family:sans-serif;letter-spacing:0px;word-spacing:0px;fill:#000000;fill-opacity:1;stroke:none;stroke-width:1px;stroke-linecap:butt;stroke-linejoin:miter;stroke-opacity:1"
       x="611.5127"
       y="252.36217"
       id="text3364"
       sodipodi:linespacing="125%"><tspan
         sodipodi:role="line"
         id="tspan3366"
         x="611.5127"
         y="252.36217">header</tspan></text>
    <text
       xml:space="preserve"
       style="font-style:normal;font-weight:normal;font-size:40px;line-height:125%;font-family:sans-serif;letter-spacing:0px;word-spacing:0px;fill:#000000;fill-opacity:1;stroke:none;stroke-width:1px;stroke-linecap:butt;stroke-linejoin:miter;stroke-opacity:1"
       x="639.39087"
       y="354.38245"
       id="text3368"
       sodipodi:linespacing="125%"><tspan
         sodipodi:role="line"
         id="tspan3370"
         x="639.39087"
         y="354.38245">nav</tspan></text>
    <text
       xml:space="preserve"
       style="font-style:normal;font-weight:normal;font-size:40px;line-height:125%;font-family:sans-serif;letter-spacing:0px;word-spacing:0px;fill:#000000;fill-opacity:1;stroke:none;stroke-width:1px;stroke-linecap:butt;stroke-linejoin:miter;stroke-opacity:1"
       x="572.5177"
       y="586.09821"
       id="text3372"
       sodipodi:linespacing="125%"><tspan
         sodipodi:role="line"
         id="tspan3374"
         x="572.5177"
         y="586.09821">photographs</tspan></text>
    <text
       xml:space="preserve"
       style="font-style:normal;font-weight:normal;font-size:40px;line-height:125%;font-family:sans-serif;letter-spacing:0px;word-spacing:0px;fill:#000000;fill-opacity:1;stroke:none;stroke-width:1px;stroke-linecap:butt;stroke-linejoin:miter;stroke-opacity:1"
       x="652.3147"
       y="972.36218"
       id="text3376"
       sodipodi:linespacing="125%"><tspan
         sodipodi:role="line"
         id="tspan3378"
         x="652.3147"
         y="972.36218">footer</tspan></text>
    <path
       style="fill:#4d4d4d"
       d="m 41.965832,90.012269 0,-49.497475 658.619458,0 658.61951,0 0,49.497475 0,49.497471 -658.61951,0 -658.619458,0 0,-49.497471 z m 577.807258,2.020305 c 0,-7.573229 0.63864,-9.091373 3.82446,-9.091373 4.35476,0 6.27706,3.762826 6.27706,12.287065 0,3.242624 0.90914,5.895684 2.02031,5.895684 1.11117,0 2.0203,-4.434371 2.0203,-9.854152 0,-10.856023 -3.42973,-15.548844 -10.09075,-13.806945 -3.22609,0.843637 -4.05138,0.06911 -4.05138,-3.802166 0,-2.974572 -1.17628,-4.861622 -3.03046,-4.861622 -2.4412,0 -3.03046,3.142698 -3.03046,16.162441 0,13.019743 0.58926,16.162444 3.03046,16.162444 2.24478,0 3.03046,-2.357026 3.03046,-9.091376 z m 38.0008,5.233903 c 0.66632,-2.026208 -0.0992,-2.449957 -2.65441,-1.469418 -4.21109,1.615945 -11.10273,-0.178221 -11.10273,-2.890477 0,-1.036287 3.12832,-1.884161 6.95183,-1.884161 8.62844,0 10.5195,-2.752233 6.30771,-9.180217 -4.11582,-6.281549 -11.94616,-6.509931 -16.17545,-0.471778 -4.08689,5.834861 -3.98733,11.433529 0.28729,16.156939 3.97685,4.394355 14.91215,4.220255 16.38576,-0.260888 z m 24.62866,-6.078156 c 0,-11.19205 -2.50789,-14.308035 -11.51574,-14.308035 -4.77908,0 -6.66701,0.920172 -6.66701,3.249475 0,2.402573 1.2382,2.938707 4.75083,2.057092 7.46622,-1.873901 8.22389,1.28388 0.87976,3.666584 -12.41754,4.028698 -8.99442,15.091553 4.61161,14.903773 l 7.94055,-0.10959 0,-9.459299 z m 24.24366,-6.558012 c 0,-10.110784 -0.79837,-15.831244 -2.20945,-15.831244 -1.21519,0 -2.68492,1.818275 -3.26609,4.040611 -0.58116,2.222335 -2.70395,4.04061 -4.71731,4.04061 -5.61867,0 -10.0102,5.64713 -10.0102,12.87223 0,8.602811 3.14882,11.377294 12.49665,11.011004 l 7.7064,-0.30196 0,-15.831251 z m 23.85867,12.636168 c 0.66632,-2.026208 -0.0992,-2.449957 -2.65442,-1.469418 -4.21108,1.615945 -11.10273,-0.178221 -11.10273,-2.890477 0,-1.036287 3.12832,-1.884161 6.95183,-1.884161 8.62844,0 10.51951,-2.752233 6.30772,-9.180217 -4.11583,-6.281549 -11.94617,-6.509931 -16.17545,-0.471778 -6.42631,9.174848 -0.90702,20.399634 9.52038,19.361974 3.41898,-0.34023 6.63767,-1.899897 7.15267,-3.465923 z M 741.3803,92.53765 c 0.51645,-7.137786 1.38811,-8.695207 5.16693,-9.231887 7.60817,-1.080532 5.45319,-6.051272 -2.52538,-5.825113 l -7.07107,0.200434 0,11.721431 c 0,13.493215 3.50083,15.971025 4.42952,3.135133 z"
       id="path3380"
       inkscape:connector-curvature="0"
       transform="translate(0,152.36216)" />
    <path
       style="fill:#4d4d4d"
       d="m 41.965832,190.01737 0,-28.28427 658.619458,0 658.61951,0 0,28.28427 0,28.28427 -658.61951,0 -658.619458,0 0,-28.28427 z M 682.56779,202.1392 c 3.21945,0 3.87537,-1.47034 3.87537,-8.68731 0,-4.77802 -1.09097,-9.77828 -2.42437,-11.11168 -2.92538,-2.92537 -15.75838,-3.25442 -15.75838,-0.40406 0,1.11117 2.72741,2.02031 6.06092,2.02031 3.3335,0 6.06091,0.90913 6.06091,2.0203 0,1.11117 -2.09102,2.02031 -4.6467,2.02031 -5.53305,0 -9.49544,3.49895 -9.49544,8.38489 0,4.09669 5.83364,8.10845 9.76169,6.71305 1.47984,-0.52569 4.43453,-0.95581 6.566,-0.95581 z m -34.12152,-8.56887 c 0.45317,-6.25065 1.57773,-8.7503 4.15678,-9.23951 2.94954,-0.55949 3.53553,0.86072 3.53553,8.56887 0,6.86603 0.77848,9.23951 3.03046,9.23951 2.17811,0 3.03045,-2.22642 3.03045,-7.91598 0,-12.59754 -1.35374,-14.30737 -11.32783,-14.30737 l -8.87522,0 0,11.11167 c 0,8.33333 0.72869,11.11168 2.91429,11.11168 1.98314,0 3.11279,-2.73788 3.53554,-8.56887 z m 58.27174,-0.68999 c 4.46714,-10.42143 4.85467,-12.96449 1.97561,-12.96449 -1.09625,0 -3.44413,3.40926 -5.21749,7.57614 l -3.22433,7.57614 -3.07979,-7.57614 c -1.69389,-4.16688 -4.26281,-7.57614 -5.7087,-7.57614 -1.9484,0 -1.50026,2.87524 1.7313,11.10767 2.39812,6.10922 5.52895,11.10947 6.95741,11.11168 1.42843,0.002 4.38313,-4.16249 6.56599,-9.25486 z"
       id="path3382"
       inkscape:connector-curvature="0"
       transform="translate(0,152.36216)" />
    <path
       style="fill:#4d4d4d"
       d="m 41.965832,499.12405 0,-258.59905 658.619458,0 658.61951,0 0,258.59905 0,258.59905 -658.61951,0 -658.619458,0 0,-258.59905 z M 581.38729,438.5149 c 0,-2.94774 1.34688,-4.04061 4.97969,-4.04061 5.77718,0 9.16245,-5.13199 9.16245,-13.89009 0,-7.20514 -2.40011,-9.02401 -12.59454,-9.54451 l -7.60851,-0.38847 0,15.95214 c 0,12.83282 0.59257,15.95215 3.03045,15.95215 1.68358,0 3.03046,-1.79583 3.03046,-4.04061 z m 124.85486,1.61624 c 1.39936,-1.39937 2.42436,-8.10269 2.42436,-15.85499 l 0,-13.43062 -6.54114,-0.18599 c -3.59762,-0.10229 -8.1433,1.26397 -10.10153,3.03612 -7.24871,6.56002 -2.59233,20.77863 6.80469,20.77863 2.36322,0 3.46012,0.89867 2.66574,2.184 -0.74238,1.2012 -3.52346,1.63845 -6.18014,0.97166 -3.50577,-0.87989 -4.83036,-0.37077 -4.83036,1.85661 0,3.77769 12.12912,4.27384 15.75838,0.64458 z m 54.95229,-1.61624 c 0,-2.86942 1.34688,-4.04061 4.64671,-4.04061 6.61253,0 9.49543,-3.72786 9.49543,-12.27852 0,-9.12101 -3.40167,-12.22051 -12.34548,-11.24881 l -6.84742,0.74394 -0.59005,15.4323 c -0.48992,12.81292 -0.0613,15.43231 2.52538,15.43231 1.76856,0 3.11543,-1.74684 3.11543,-4.04061 z M 605.63095,425.38291 c 0,-7.57323 0.63864,-9.09137 3.82446,-9.09137 4.35477,0 6.27707,3.76283 6.27707,12.28707 0,3.24262 0.90913,5.89568 2.0203,5.89568 1.11117,0 2.02031,-4.43437 2.02031,-9.85415 0,-10.95511 -3.39632,-15.50752 -10.00457,-13.41013 -3.4365,1.09069 -4.13757,0.43433 -4.13757,-3.8737 0,-3.26371 -1.12363,-5.1869 -3.03046,-5.1869 -2.44119,0 -3.03045,3.14269 -3.03045,16.16244 0,13.01974 0.58926,16.16244 3.03045,16.16244 2.24479,0 3.03046,-2.35703 3.03046,-9.09138 z m 37.23134,5.91661 c 1.74613,-1.74612 3.17476,-5.38267 3.17476,-8.08122 0,-5.46404 -6.43689,-12.98767 -11.11167,-12.98767 -4.67479,0 -11.11168,7.52363 -11.11168,12.98767 0,6.22564 4.96585,11.25599 11.11168,11.25599 2.61918,0 6.1908,-1.42865 7.93691,-3.17477 z m 19.3372,1.15446 c 0,-1.11117 -1.3637,-2.0203 -3.03045,-2.0203 -2.11652,0 -3.03046,-2.13255 -3.03046,-7.07107 0,-4.93852 0.91394,-7.07107 3.03046,-7.07107 1.66675,0 3.03045,-1.36371 3.03045,-3.03046 0,-1.66675 -1.03619,-3.03045 -2.30266,-3.03045 -1.26645,0 -3.46496,-1.58956 -4.88558,-3.53236 -1.4206,-1.9428 -3.3391,-2.77572 -4.26333,-1.85093 -1.78369,1.78476 -1.38253,24.81968 0.48483,27.84117 1.52135,2.46157 10.96674,2.25957 10.96674,-0.23453 z m 21.35657,-2.96572 c 7.11412,-10.85752 -5.88133,-24.74702 -15.23448,-16.28254 -4.46984,4.04515 -5.3,11.21408 -2.0104,17.36077 3.11086,5.8127 13.14067,5.18559 17.24488,-1.07823 z m 37.62119,-3.60027 0.62124,-8.5863 12.12184,-0.39126 c 10.08522,-0.32553 11.10392,-0.0777 6.06325,1.47496 -14.02245,4.31933 -13.20816,16.3002 1.06982,15.74073 l 8.01921,-0.31422 0,-9.52296 c 0,-5.23762 -1.14535,-10.47352 -2.54524,-11.63532 -1.40179,-1.16338 -8.88972,-1.8502 -16.66751,-1.5288 l -14.12228,0.58357 -0.60589,11.38295 c -0.47992,9.01622 0.021,11.38295 2.40921,11.38295 2.10288,0 3.20308,-2.59783 3.63635,-8.5863 z m 64.26085,-0.64559 c 0,-8.41823 0.40065,-9.17499 4.54569,-8.5863 3.77882,0.53668 4.65048,2.0941 5.16693,9.23189 0.85798,11.85858 4.42952,10.83631 4.42952,-1.26785 0,-10.95511 -3.39631,-15.50752 -10.00457,-13.41013 -3.45955,1.09801 -4.13757,0.43565 -4.13757,-4.04206 0,-3.38202 -0.93051,-5.04804 -2.52538,-4.52148 -2.59463,0.85665 -4.71927,23.80869 -2.69278,29.08964 2.27331,5.92414 5.21816,2.25943 5.21816,-6.49371 z m 35.99685,2.64267 c 0.55308,-4.80988 -0.2129,-5.74994 -5.55584,-6.81853 -7.99897,-1.59979 -8.12197,-5.51608 -0.13637,-4.34405 6.96084,1.02163 8.58927,-3.3968 2.02031,-5.48171 -5.32585,-1.69036 -11.44436,0.37123 -12.9802,4.37358 -1.57642,4.10812 1.68643,8.02113 8.01231,9.60883 7.95808,1.99735 6.07928,5.86867 -2.10318,4.33363 -3.88909,-0.7296 -7.07107,-0.52773 -7.07107,0.44859 0,3.45234 2.96896,4.6542 10.02932,4.05995 6.12003,-0.5151 7.23516,-1.4004 7.78478,-6.18029 l -6e-5,0 z"
       id="path3384"
       inkscape:connector-curvature="0"
       transform="translate(0,152.36216)" />
    <path
       style="fill:#4d4d4d"
       d="m 41.965832,499.12405 0,-258.59905 658.619458,0 658.61951,0 0,258.59905 0,258.59905 -658.61951,0 -658.619458,0 0,-258.59905 z m 539.421458,-59.2344 c 0,-1.46622 2.9547,-3.96635 6.56599,-5.55584 5.59263,-2.46156 6.66271,-4.07603 7.21833,-10.89062 0.77127,-9.45928 -2.96716,-13.21256 -13.16031,-13.21256 l -6.68492,0 0,16.16244 c 0,13.01974 0.58926,16.16244 3.03045,16.16244 1.66675,0 3.03046,-1.19964 3.03046,-2.66586 z m 124.85486,0.24149 c 1.41025,-1.41025 2.42436,-8.17101 2.42436,-16.16244 l 0,-13.73807 -6.92676,0 c -8.35507,0 -13.27629,4.40365 -13.27629,11.87999 0,6.60698 3.55018,11.6714 9.09137,12.96903 3.02272,0.70786 2.64101,1.00526 -1.51523,1.18058 -3.48749,0.14712 -5.55583,1.36255 -5.55583,3.26482 0,3.74154 12.1554,4.20906 15.75838,0.60609 z m 54.95229,-0.24149 c 0,-1.46622 2.9547,-3.96635 6.566,-5.55584 5.52965,-2.43384 6.66627,-4.10801 7.20143,-10.60712 0.82184,-9.98098 -2.30215,-13.49606 -11.99449,-13.49606 l -7.83385,0 0,16.16244 c 0,13.01974 0.58926,16.16244 3.03046,16.16244 1.66675,0 3.03045,-1.19964 3.03045,-2.66586 z m -155.18038,-12.9747 c 0.9214,-11.10803 6.84692,-11.53915 8.68962,-0.63223 1.90119,11.253 5.06941,10.31186 5.06941,-1.5059 0,-10.71837 -2.49872,-14.54619 -9.49544,-14.54619 -3.29982,0 -4.6467,-1.1712 -4.6467,-4.04061 0,-2.24479 -1.34687,-4.04061 -3.03046,-4.04061 -2.44119,0 -3.03045,3.14269 -3.03045,16.16244 0,12.71854 0.61975,16.16244 2.90849,16.16244 1.90121,0 3.12567,-2.61804 3.53553,-7.55934 z m 37.59863,5.13497 c 3.38152,-3.38152 3.02381,-11.98318 -0.72065,-17.32915 -6.25763,-8.934 -19.07834,-3.18776 -19.07834,8.5509 0,8.01938 3.15739,11.20262 11.11168,11.20262 3.44462,0 7.35391,-1.09097 8.68731,-2.42437 z m 18.5868,1.26991 c 0,-0.63496 -1.3637,-2.51817 -3.03045,-4.18492 -1.66675,-1.66675 -3.03046,-4.26429 -3.03046,-5.7723 0,-1.50802 1.36371,-4.10555 3.03046,-5.7723 4.26799,-4.268 3.80286,-6.38887 -2.27444,-10.37088 -4.37021,-2.86346 -5.61065,-2.9934 -7.04014,-0.73743 -2.05576,3.24434 -2.22143,10.00377 -0.50037,20.41614 1.108,6.70332 1.92006,7.57615 7.04883,7.57615 3.18812,0 5.79657,-0.51951 5.79657,-1.15446 z m 20.54905,-2.18912 c 4.52387,-4.09405 4.73616,-10.43278 0.54961,-16.40994 -3.66805,-5.23685 -11.34699,-5.87197 -15.90358,-1.31538 -3.74803,3.74803 -4.2084,15.18653 -0.7504,18.64453 3.46654,3.46654 11.78268,2.99187 16.10437,-0.91921 z m 39.28429,-4.73764 c 1.17751,-7.36381 1.83518,-8.08122 7.40807,-8.08122 6.04583,0 6.07274,0.0476 2.3521,4.15887 -5.43753,6.00839 -1.74669,10.82549 8.89906,11.61465 l 8.38055,0.62124 0,-9.81362 c 0,-5.3975 -1.09096,-10.9046 -2.42436,-12.238 -1.44282,-1.44281 -8.3955,-2.42436 -17.1726,-2.42436 l -14.74822,0 0,12.12183 c 0,9.38531 0.67874,12.12183 3.00657,12.12183 1.94544,0 3.46269,-2.8522 4.29883,-8.08122 z m 63.78839,0.52188 c 0.91667,-11.05116 6.72246,-11.47489 8.45865,-0.61735 1.80443,11.28432 5.30037,10.28127 5.30037,-1.52078 0,-10.71837 -2.49871,-14.54619 -9.49543,-14.54619 -3.29983,0 -4.64671,-1.1712 -4.64671,-4.04061 0,-4.81691 -3.10236,-5.35909 -4.83461,-0.84492 -0.67447,1.75763 -1.2263,9.03073 -1.2263,16.16244 0,9.93748 0.67947,12.96675 2.90849,12.96675 1.90121,0 3.12568,-2.61804 3.53554,-7.55934 z m 35.62599,0.84309 c 0.51615,-4.50494 -0.30306,-5.95631 -3.89163,-6.89475 l -4.5454,-1.18865 4.56591,-1.68903 c 2.51124,-0.92898 4.19237,-2.8266 3.73582,-4.21694 -1.12785,-3.43472 -11.18925,-4.39871 -14.78277,-1.41635 -4.61013,3.82608 -3.42644,7.72331 3.6577,12.04258 l 6.56599,4.00337 -6.56599,0.007 c -4.59407,0.005 -6.56599,0.95256 -6.56599,3.15418 0,2.45248 1.89412,3.00957 8.5863,2.52538 7.74314,-0.56024 8.6505,-1.18157 9.24006,-6.32734 l 0,8e-5 z"
       id="path3386"
       inkscape:connector-curvature="0"
       transform="translate(0,152.36216)" />
  </g>
</svg>
